PathFileType	4	(X/Y/Z)	AB05\squats_2.trc
DataRate	CameraRate	NumFrames	NumMarkers	Units	OrigDataRate	OrigDataStartFrame	OrigNumFrames
200.000000	200.000000	5	35	mm	200.000000	0	336
Frame#	Time	C7			LSHO			STRN			LASI			RASI			LPSI			RPSI			LGTR			RGTR			LTHC			LTHL			LTHR			LKNE			LMKNE			LSHC			LSHL			LSHR			LANK			LMANK			LMT1			LMT5			LCAL			RTHC			RTHL			RTHR			RKNE			RMKNE			RSHC			RSHL			RSHR			RANK			RMANK			RMT1			RMT5			RCAL			
		X1	Y1	Z1	X2	Y2	Z2	X3	Y3	Z3	X4	Y4	Z4	X5	Y5	Z5	X6	Y6	Z6	X7	Y7	Z7	X8	Y8	Z8	X9	Y9	Z9	X10	Y10	Z10	X11	Y11	Z11	X12	Y12	Z12	X13	Y13	Z13	X14	Y14	Z14	X15	Y15	Z15	X16	Y16	Z16	X17	Y17	Z17	X18	Y18	Z18	X19	Y19	Z19	X20	Y20	Z20	X21	Y21	Z21	X22	Y22	Z22	X23	Y23	Z23	X24	Y24	Z24	X25	Y25	Z25	X26	Y26	Z26	X27	Y27	Z27	X28	Y28	Z28	X29	Y29	Z29	X30	Y30	Z30	X31	Y31	Z31	X32	Y32	Z32	X33	Y33	Z33	X34	Y34	Z34	X35	Y35	Z35	

1	0.91	-2337.362826680762	1567.646364683895	2494.712104829934	-2252.413176949556	1528.188832312223	2345.946652399624	-2219.254934981819	1471.000076901091	2502.10431256589	-2240.167574079098	1011.580588199579	2364.667005816223	-2254.146425483321	1021.33663116538	2637.252654649868	-2418.867215910581	1076.006478612375	2429.711414714883	-2416.013255881644	1091.596987146296	2549.996295801529	-2321.780375692304	923.4839927731228	2310.944947006788	-2367.327623878839	947.2560570446119	2671.182001394896	-2198.248335889382	795.771076291362	2355.167653701405	-2386.788807974903	802.3330801778095	2363.531537300743	-2271.424302373804	815.6455211714426	2300.757440735311	-2272.493066333128	529.0922857237883	2302.654025668361	-2259.557048455374	519.8936935402756	2423.701677760583	-2370.068233859847	400.0945520052246	2298.797472630134	-2276.040050839909	259.4515127783674	2323.476718180254	-2288.892867979469	340.9928650790459	2399.501276786777	-2362.049759180548	109.1805304054632	2287.254204479578	-2328.79728521197	110.5323469785865	2380.241645849695	-2199.588459562773	65.86763512861015	2349.987820750008	-2248.820868175172	54.73876731444031	2234.692707777933	-2421.37546226006	71.89495286446009	2344.950645808467	-2400.428182042922	792.1104145713241	2629.491622454469	-2288.006896923064	810.757407159773	2701.493762056027	-2211.075139477238	790.905311914921	2627.818615466208	-2290.718673379755	530.531642022621	2697.409421212066	-2257.759125711211	518.86124214799	2576.022209831258	-2282.117438709638	278.4332481075541	2684.58754003471	-2357.21269225896	427.2899350277929	2704.089270708688	-2290.182550087699	377.487798186173	2600.559784119129	-2369.529538469189	106.8857084037221	2712.133792340268	-2327.830264390307	109.0843267318483	2621.496655553136	-2209.730726237957	64.249414564026	2653.651684556718	-2244.609202166841	61.5382077147943	2760.162524169421	-2430.842354790384	73.57352906460387	2658.073989241112	
2	0.915	-2335.176677974904	1566.437591224135	2495.01098465287	-2250.731380474378	1526.626582448356	2346.403084833913	-2217.87985031266	1468.921111581947	2502.287016636561	-2242.590388266192	1010.280421456567	2364.841546132277	-2256.384495784996	1020.228394297885	2637.229912457409	-2421.074886208816	1075.116298357328	2429.859240334747	-2418.078198350704	1090.848953991426	2550.160761248198	-2323.655002060539	922.3275620717817	2310.969020000782	-2369.247815309316	946.3678325025529	2671.61093449656	-2198.765501659218	795.9803000933396	2354.868783466728	-2387.468558937872	800.3631116476039	2363.151149630152	-2272.165377284176	814.9964762939907	2300.631562131333	-2270.086261359573	528.5906452643916	2302.099480553734	-2256.976181979809	519.5236059957595	2423.113259940319	-2368.082038358399	400.0811617864915	2298.215812126317	-2274.893525210572	259.0592074712271	2323.328638591906	-2287.298259105028	340.7417552421165	2399.191362391552	-2361.836939987584	109.2509573290445	2287.153675662861	-2328.714888679646	110.587610681593	2380.208619894121	-2199.564621756294	65.84560527525696	2350.012554188111	-2248.804851013134	54.76121011626985	2234.732634852444	-2421.360551939639	71.95485112770022	2344.946761744573	-2401.133327542381	790.3510497806299	2630.291814944498	-2288.566958748618	810.0884310466507	2701.78547461411	-2211.757898601482	790.9410064010896	2627.919896233202	-2288.841086582393	530.0507716702075	2698.175735595641	-2255.92721014135	518.4822956983105	2576.69925810613	-2281.178895082903	278.0355258411462	2684.896677394273	-2355.535565906587	427.1208220947206	2704.736043857298	-2288.719058376775	377.2345362611272	2601.041181442694	-2369.385601057562	106.9409014294333	2712.169244785818	-2327.86279831312	109.0911852081097	2621.563206368318	-2209.722479612286	64.24394981115248	2653.62703744326	-2244.616533260734	61.53393478609657	2760.162877231256	-2430.83903638515	73.60029489505301	2658.082050969125	
3	0.92	-2332.982362543438	1565.218367533926	2495.310148298951	-2249.041539393242	1525.053523517226	2346.859845412415	-2216.49924087597	1466.828901025997	2502.469481408521	-2245.020406004829	1008.974962964985	2365.017110958023	-2258.632982434759	1019.11217386552	2637.207546366875	-2423.290736832965	1074.218423367774	2430.006788196218	-2420.153080225093	1090.091094293716	2550.324367312012	-2325.536707594003	921.165545090876	2310.991618249702	-2371.177246861857	945.4678032647744	2672.037496969974	-2199.286355479396	796.1856780052649	2354.557754048858	-2388.149033886205	798.3859264896065	2362.775095013956	-2272.913473848138	814.3403001022634	2300.498051855011	-2267.677956815932	528.0857054361082	2301.540814316993	-2254.389836379574	519.1519406746037	2422.521531760186	-2366.093555271315	400.0672643603558	2297.635049793485	-2273.745367374662	258.6655561306191	2323.177745282002	-2285.697947742831	340.489515768393	2398.878983579063	-2361.623570889108	109.3215017561364	2287.054377233126	-2328.632033707644	110.6429930919621	2380.175146928235	-2199.540524368464	65.82377772669882	2350.036708233466	-2248.789059892287	54.78313224868329	2234.771917361697	-2421.345544123584	72.01550260261244	2344.943449023118	-2401.835935904682	788.5768907166566	2631.096132359211	-2289.125512338554	809.4141532762303	2702.074954317636	-2212.441575642219	790.9720219561383	2628.018093280396	-2286.952909592597	529.5652917498001	2698.948046908004	-2254.080683913682	518.0993018566713	2577.38345495076	-2280.23450601149	277.6354342774008	2685.208571239335	-2353.848740498826	426.9491990802986	2705.389016917734	-2287.245088233096	376.9784199850542	2601.526484064196	-2369.239745515339	106.995884538819	2712.20403722283	-2327.896728815136	109.0979393759428	2621.630609211091	-2209.713675759749	64.23845259985875	2653.602818699828	-2244.623595975409	61.52988851206585	2760.163661437407	-2430.835864949472	73.62797934967379	2658.089457700806	
4	0.925	-2330.781488866017	1563.978042134967	2495.608822938355	-2247.342748401615	1523.459210192583	2347.316149696335	-2215.114278149711	1464.713524666802	2502.651154013599	-2247.455659133314	1007.658570319354	2365.193108211985	-2260.890449008103	1017.979852879971	2637.186500280501	-2425.51229804378	1073.307842118455	2430.153760206154	-2422.236255866934	1089.316552412764	2550.486722066355	-2327.426075079504	919.9944611854196	2311.011692336232	-2373.11605932722	944.5478857378121	2672.458974667547	-2199.815449425018	796.3820714219451	2354.234152617133	-2388.83160302206	796.401473574694	2362.405237192431	-2273.671931053907	813.6730525564133	2300.355929312651	-2265.277389180887	527.5774390625693	2300.97958906959	-2251.808590847996	518.7781470243864	2421.929361082101	-2364.109631815065	400.051904661704	2297.05827111462	-2272.599814562505	258.2709886083683	2323.024344684321	-2284.097071253506	340.2361342367918	2398.565814834495	-2361.410364348566	109.3918479650967	2286.9578320097	-2328.548890634052	110.6979858779095	2380.141855294187	-2199.516264581089	65.80220764011838	2350.060246370738	-2248.773624996215	54.80429696930252	2234.810515643969	-2421.330365547184	72.07672249232972	2344.941080569953	-2402.53392066654	786.7834321932442	2631.902617213219	-2289.683478914933	808.7303056846374	2702.360546774127	-2213.126967063319	790.9936013066732	2628.112390195914	-2285.055514320313	529.0742933396982	2699.725063000648	-2252.220126793898	517.7111356918384	2578.074138346379	-2279.284564473436	277.2326199221217	2685.522511306413	-2352.153259376267	426.7740064163946	2706.047373351297	-2285.761731472973	376.7188975590674	2602.014906173304	-2369.091720213765	107.0500887448365	2712.237424011278	-2327.931018878871	109.104586499894	2621.697870336087	-2209.703853671912	64.23280736411085	2653.579210896535	-2244.630101952441	61.52615015386677	2760.164882839277	-2430.832608215222	73.65658502503973	2658.095813323275	
5	0.93	-2328.574610444985	1562.704524250452	2495.906356432282	-2245.633156810559	1521.831577208418	2347.77145156393	-2213.725430781502	1462.563203965618	2502.831584245982	-2249.895545662214	1006.324372290385	2365.368975309047	-2263.156514574317	1016.822092303362	2637.167671481845	-2427.738151912037	1072.378790599496	2430.300017951405	-2424.326929716387	1088.517695491791	2550.647595859918	-2329.324832699428	918.8098998343524	2311.028169867443	-2375.065363446912	943.5990972063112	2672.872886034335	-2200.357924695924	796.5642469539025	2353.897976294625	-2389.518323381271	794.4085164124028	2362.04315481623	-2274.44464917054	812.9902330069027	2300.204539916735	-2262.892757500004	527.065600474969	2300.417413020104	-2249.242180826539	518.4014620990324	2421.339677612769	-2362.136255850487	400.0340902520659	2296.488455168917	-2271.46062353774	257.8757947448881	2322.86885589448	-2282.500178211561	339.981456075272	2398.253582037557	-2361.197967318687	109.4617234275121	2286.865520163255	-2328.465613072754	110.7520749677112	2380.10943013307	-2199.491928165655	65.78092980653872	2350.083181928117	-2248.758657192803	54.82450014091956	2234.848448728926	-2421.314935618385	72.13834655426453	2344.940034112895	-2403.225681010094	784.9651625412434	2632.709457872541	-2290.24236828245	808.03200389913	2702.640716094471	-2213.815475669212	791.0007682370042	2628.202053727969	-2283.149600980094	528.5765942507566	2700.505616548459	-2250.345512313824	517.3165092432669	2578.770697460327	-2278.329021124545	276.8265485397322	2685.837777439228	-2350.449541403925	426.594070321852	2706.71034526771	-2284.269528497181	376.4552454251018	2602.505708414855	-2368.941228614958	107.102985490448	2712.268622397707	-2327.964583458674	109.1111098510924	2621.763922451427	-2209.692587375654	64.22689712171027	2653.556355416402	-2244.63577386335	61.52279659856722	2760.166520646907	-2430.829018928318	73.68612219851981	2658.100700385535	
